<mxfile host="65bd71144e">
    <diagram id="5LquKadr7rG5nD2s-f8d" name="PÃ¡gina-1">
        <mxGraphModel dx="2316" dy="1580" grid="1" gridSize="10" guides="1" tooltips="1" connect="1" arrows="1" fold="1" page="1" pageScale="1" pageWidth="827" pageHeight="1169" background="#B3B3B3" math="0" shadow="0">
            <root>
                <mxCell id="0"/>
                <mxCell id="1" parent="0"/>
                <mxCell id="68" value="" style="edgeStyle=none;html=1;fillColor=#d5e8d4;gradientColor=#97d077;strokeColor=#000000;" edge="1" parent="1" source="69" target="142">
                    <mxGeometry relative="1" as="geometry"/>
                </mxCell>
                <mxCell id="69" value="INICIO" style="ellipse;whiteSpace=wrap;html=1;fillColor=#000000;strokeColor=#000000;gradientColor=#97d077;" vertex="1" parent="1">
                    <mxGeometry x="240" y="-80" width="120" height="80" as="geometry"/>
                </mxCell>
                <mxCell id="70" value="" style="edgeStyle=none;html=1;exitX=0.5;exitY=1;exitDx=0;exitDy=0;fillColor=#d5e8d4;gradientColor=#97d077;strokeColor=#000000;" edge="1" parent="1" source="143">
                    <mxGeometry relative="1" as="geometry">
                        <mxPoint x="300" y="320" as="targetPoint"/>
                        <mxPoint x="300" y="260" as="sourcePoint"/>
                    </mxGeometry>
                </mxCell>
                <mxCell id="71" value="IMC&amp;lt;16" style="rhombus;whiteSpace=wrap;html=1;fillColor=#000000;strokeColor=#d6b656;gradientColor=#ffd966;" vertex="1" parent="1">
                    <mxGeometry x="260" y="320" width="80" height="80" as="geometry"/>
                </mxCell>
                <mxCell id="72" value="" style="endArrow=none;html=1;fillColor=#d5e8d4;gradientColor=#97d077;strokeColor=#000000;" edge="1" parent="1">
                    <mxGeometry width="50" height="50" relative="1" as="geometry">
                        <mxPoint x="340" y="359.5" as="sourcePoint"/>
                        <mxPoint x="490" y="359.5" as="targetPoint"/>
                    </mxGeometry>
                </mxCell>
                <mxCell id="73" value="" style="edgeStyle=none;html=1;fillColor=#d5e8d4;gradientColor=#97d077;strokeColor=#000000;" edge="1" parent="1">
                    <mxGeometry relative="1" as="geometry">
                        <mxPoint x="490" y="360" as="sourcePoint"/>
                        <mxPoint x="490" y="420" as="targetPoint"/>
                    </mxGeometry>
                </mxCell>
                <mxCell id="74" value="DIAGNOSTICO=Criterio de ingreso en hospital." style="rounded=0;whiteSpace=wrap;html=1;fillColor=#000000;strokeColor=#6c8ebf;gradientColor=#7ea6e0;" vertex="1" parent="1">
                    <mxGeometry x="430" y="420" width="130" height="60" as="geometry"/>
                </mxCell>
                <mxCell id="75" value="" style="endArrow=none;html=1;fillColor=#d5e8d4;gradientColor=#97d077;strokeColor=#000000;" edge="1" parent="1">
                    <mxGeometry width="50" height="50" relative="1" as="geometry">
                        <mxPoint x="110" y="359.5" as="sourcePoint"/>
                        <mxPoint x="260" y="359.5" as="targetPoint"/>
                    </mxGeometry>
                </mxCell>
                <mxCell id="76" value="" style="edgeStyle=none;html=1;fillColor=#d5e8d4;gradientColor=#97d077;strokeColor=#000000;" edge="1" parent="1">
                    <mxGeometry relative="1" as="geometry">
                        <mxPoint x="110" y="360" as="sourcePoint"/>
                        <mxPoint x="110" y="430" as="targetPoint"/>
                    </mxGeometry>
                </mxCell>
                <mxCell id="77" value="16&amp;lt;= IMC &amp;lt;=17" style="rhombus;whiteSpace=wrap;html=1;fillColor=#1A1A1A;strokeColor=#d6b656;gradientColor=#ffd966;" vertex="1" parent="1">
                    <mxGeometry x="70" y="430" width="90" height="90" as="geometry"/>
                </mxCell>
                <mxCell id="78" value="DIAGNOSTICO=Infrapeso" style="rounded=0;whiteSpace=wrap;html=1;fillColor=#000000;strokeColor=#6c8ebf;gradientColor=#7ea6e0;" vertex="1" parent="1">
                    <mxGeometry x="200" y="560" width="140" height="60" as="geometry"/>
                </mxCell>
                <mxCell id="79" value="" style="endArrow=none;html=1;fillColor=#d5e8d4;gradientColor=#97d077;strokeColor=#000000;" edge="1" parent="1">
                    <mxGeometry width="50" height="50" relative="1" as="geometry">
                        <mxPoint x="160" y="480" as="sourcePoint"/>
                        <mxPoint x="270" y="480.5" as="targetPoint"/>
                        <Array as="points">
                            <mxPoint x="220" y="480.5"/>
                        </Array>
                    </mxGeometry>
                </mxCell>
                <mxCell id="80" value="" style="endArrow=none;html=1;fillColor=#d5e8d4;gradientColor=#97d077;strokeColor=#000000;" edge="1" parent="1">
                    <mxGeometry width="50" height="50" relative="1" as="geometry">
                        <mxPoint x="-40" y="480.25" as="sourcePoint"/>
                        <mxPoint x="70" y="480" as="targetPoint"/>
                    </mxGeometry>
                </mxCell>
                <mxCell id="81" value="" style="edgeStyle=none;html=1;fillColor=#d5e8d4;gradientColor=#97d077;strokeColor=#000000;" edge="1" parent="1">
                    <mxGeometry relative="1" as="geometry">
                        <mxPoint x="269.5" y="480" as="sourcePoint"/>
                        <mxPoint x="269.5" y="560" as="targetPoint"/>
                    </mxGeometry>
                </mxCell>
                <mxCell id="82" value="" style="edgeStyle=none;html=1;fillColor=#d5e8d4;gradientColor=#97d077;strokeColor=#000000;" edge="1" parent="1">
                    <mxGeometry relative="1" as="geometry">
                        <mxPoint x="-40" y="480" as="sourcePoint"/>
                        <mxPoint x="-40" y="560" as="targetPoint"/>
                    </mxGeometry>
                </mxCell>
                <mxCell id="83" value="17&amp;lt;= IMC &amp;lt;=18" style="rhombus;whiteSpace=wrap;html=1;fillColor=#000000;strokeColor=#d6b656;gradientColor=#ffd966;" vertex="1" parent="1">
                    <mxGeometry x="-80" y="560" width="90" height="90" as="geometry"/>
                </mxCell>
                <mxCell id="84" value="" style="endArrow=none;html=1;fillColor=#d5e8d4;gradientColor=#97d077;strokeColor=#000000;" edge="1" parent="1">
                    <mxGeometry width="50" height="50" relative="1" as="geometry">
                        <mxPoint x="10" y="604.5" as="sourcePoint"/>
                        <mxPoint x="120" y="605" as="targetPoint"/>
                        <Array as="points">
                            <mxPoint x="70" y="605"/>
                        </Array>
                    </mxGeometry>
                </mxCell>
                <mxCell id="85" value="" style="edgeStyle=none;html=1;fillColor=#d5e8d4;gradientColor=#97d077;strokeColor=#000000;" edge="1" parent="1">
                    <mxGeometry relative="1" as="geometry">
                        <mxPoint x="120" y="600" as="sourcePoint"/>
                        <mxPoint x="120" y="680" as="targetPoint"/>
                    </mxGeometry>
                </mxCell>
                <mxCell id="86" value="DIAGNOSTICO=Bajo peso" style="rounded=0;whiteSpace=wrap;html=1;fillColor=#000000;strokeColor=#6c8ebf;gradientColor=#7ea6e0;" vertex="1" parent="1">
                    <mxGeometry x="50" y="680" width="140" height="60" as="geometry"/>
                </mxCell>
                <mxCell id="87" value="" style="endArrow=none;html=1;fillColor=#d5e8d4;gradientColor=#97d077;strokeColor=#000000;" edge="1" parent="1">
                    <mxGeometry width="50" height="50" relative="1" as="geometry">
                        <mxPoint x="-190" y="604.5" as="sourcePoint"/>
                        <mxPoint x="-80" y="605" as="targetPoint"/>
                        <Array as="points">
                            <mxPoint x="-130" y="605"/>
                        </Array>
                    </mxGeometry>
                </mxCell>
                <mxCell id="88" value="" style="edgeStyle=none;html=1;fillColor=#d5e8d4;gradientColor=#97d077;strokeColor=#000000;" edge="1" parent="1">
                    <mxGeometry relative="1" as="geometry">
                        <mxPoint x="-190" y="600" as="sourcePoint"/>
                        <mxPoint x="-190" y="680" as="targetPoint"/>
                    </mxGeometry>
                </mxCell>
                <mxCell id="89" value="18&amp;lt;= IMC &amp;lt;=25" style="rhombus;whiteSpace=wrap;html=1;fillColor=#000000;strokeColor=#d6b656;gradientColor=#ffd966;" vertex="1" parent="1">
                    <mxGeometry x="-230" y="680" width="90" height="90" as="geometry"/>
                </mxCell>
                <mxCell id="90" value="" style="endArrow=none;html=1;fillColor=#d5e8d4;gradientColor=#97d077;strokeColor=#000000;" edge="1" parent="1">
                    <mxGeometry width="50" height="50" relative="1" as="geometry">
                        <mxPoint x="-140" y="724.52" as="sourcePoint"/>
                        <mxPoint x="-30" y="725.02" as="targetPoint"/>
                        <Array as="points">
                            <mxPoint x="-80" y="725.02"/>
                        </Array>
                    </mxGeometry>
                </mxCell>
                <mxCell id="91" value="" style="edgeStyle=none;html=1;fillColor=#d5e8d4;gradientColor=#97d077;strokeColor=#000000;" edge="1" parent="1">
                    <mxGeometry relative="1" as="geometry">
                        <mxPoint x="-30" y="720" as="sourcePoint"/>
                        <mxPoint x="-30" y="800" as="targetPoint"/>
                    </mxGeometry>
                </mxCell>
                <mxCell id="92" value="" style="endArrow=none;html=1;fillColor=#d5e8d4;gradientColor=#97d077;strokeColor=#000000;" edge="1" parent="1">
                    <mxGeometry width="50" height="50" relative="1" as="geometry">
                        <mxPoint x="-340" y="724.52" as="sourcePoint"/>
                        <mxPoint x="-230" y="725.02" as="targetPoint"/>
                        <Array as="points">
                            <mxPoint x="-280" y="725.02"/>
                        </Array>
                    </mxGeometry>
                </mxCell>
                <mxCell id="93" value="" style="edgeStyle=none;html=1;fillColor=#d5e8d4;gradientColor=#97d077;strokeColor=#000000;" edge="1" parent="1">
                    <mxGeometry relative="1" as="geometry">
                        <mxPoint x="-340" y="720" as="sourcePoint"/>
                        <mxPoint x="-340" y="800" as="targetPoint"/>
                    </mxGeometry>
                </mxCell>
                <mxCell id="94" value="DIAGNOSTICO=peso normal(saludable)" style="rounded=0;whiteSpace=wrap;html=1;fillColor=#000000;strokeColor=#6c8ebf;gradientColor=#7ea6e0;" vertex="1" parent="1">
                    <mxGeometry x="-105" y="800" width="140" height="60" as="geometry"/>
                </mxCell>
                <mxCell id="95" value="25&amp;lt;= IMC &amp;lt;=30" style="rhombus;whiteSpace=wrap;html=1;fillColor=#000000;strokeColor=#d6b656;gradientColor=#ffd966;" vertex="1" parent="1">
                    <mxGeometry x="-380" y="800" width="90" height="90" as="geometry"/>
                </mxCell>
                <mxCell id="96" value="" style="endArrow=none;html=1;fillColor=#d5e8d4;gradientColor=#97d077;strokeColor=#000000;" edge="1" parent="1">
                    <mxGeometry width="50" height="50" relative="1" as="geometry">
                        <mxPoint x="-290" y="844.52" as="sourcePoint"/>
                        <mxPoint x="-180" y="845.02" as="targetPoint"/>
                        <Array as="points">
                            <mxPoint x="-230" y="845.02"/>
                        </Array>
                    </mxGeometry>
                </mxCell>
                <mxCell id="97" value="" style="edgeStyle=none;html=1;fillColor=#d5e8d4;gradientColor=#97d077;strokeColor=#000000;" edge="1" parent="1">
                    <mxGeometry relative="1" as="geometry">
                        <mxPoint x="-180" y="840" as="sourcePoint"/>
                        <mxPoint x="-180" y="920" as="targetPoint"/>
                    </mxGeometry>
                </mxCell>
                <mxCell id="98" value="" style="endArrow=none;html=1;fillColor=#d5e8d4;gradientColor=#97d077;strokeColor=#000000;" edge="1" parent="1">
                    <mxGeometry width="50" height="50" relative="1" as="geometry">
                        <mxPoint x="-490" y="844.52" as="sourcePoint"/>
                        <mxPoint x="-380" y="845.02" as="targetPoint"/>
                        <Array as="points">
                            <mxPoint x="-430" y="845.02"/>
                        </Array>
                    </mxGeometry>
                </mxCell>
                <mxCell id="99" value="" style="edgeStyle=none;html=1;fillColor=#d5e8d4;gradientColor=#97d077;strokeColor=#000000;" edge="1" parent="1">
                    <mxGeometry relative="1" as="geometry">
                        <mxPoint x="-490" y="840" as="sourcePoint"/>
                        <mxPoint x="-490" y="920" as="targetPoint"/>
                    </mxGeometry>
                </mxCell>
                <mxCell id="100" value="DIAGNOSTICO=Sobrepeso (obesidad de grado I)" style="rounded=0;whiteSpace=wrap;html=1;fillColor=#000000;strokeColor=#6c8ebf;gradientColor=#7ea6e0;" vertex="1" parent="1">
                    <mxGeometry x="-250" y="920" width="150" height="60" as="geometry"/>
                </mxCell>
                <mxCell id="101" value="30&amp;lt;= IMC &amp;lt;=35" style="rhombus;whiteSpace=wrap;html=1;fillColor=#000000;strokeColor=#d6b656;gradientColor=#ffd966;" vertex="1" parent="1">
                    <mxGeometry x="-530" y="920" width="90" height="90" as="geometry"/>
                </mxCell>
                <mxCell id="102" value="" style="endArrow=none;html=1;fillColor=#d5e8d4;gradientColor=#97d077;strokeColor=#000000;" edge="1" parent="1">
                    <mxGeometry width="50" height="50" relative="1" as="geometry">
                        <mxPoint x="-440" y="964.52" as="sourcePoint"/>
                        <mxPoint x="-330" y="965.02" as="targetPoint"/>
                        <Array as="points">
                            <mxPoint x="-380" y="965.02"/>
                        </Array>
                    </mxGeometry>
                </mxCell>
                <mxCell id="103" value="" style="edgeStyle=none;html=1;fillColor=#d5e8d4;gradientColor=#97d077;strokeColor=#000000;" edge="1" parent="1">
                    <mxGeometry relative="1" as="geometry">
                        <mxPoint x="-330" y="960" as="sourcePoint"/>
                        <mxPoint x="-330" y="1040" as="targetPoint"/>
                    </mxGeometry>
                </mxCell>
                <mxCell id="104" value="" style="endArrow=none;html=1;fillColor=#d5e8d4;gradientColor=#97d077;strokeColor=#000000;" edge="1" parent="1">
                    <mxGeometry width="50" height="50" relative="1" as="geometry">
                        <mxPoint x="-640" y="964.52" as="sourcePoint"/>
                        <mxPoint x="-530" y="965.02" as="targetPoint"/>
                        <Array as="points">
                            <mxPoint x="-580" y="965.02"/>
                        </Array>
                    </mxGeometry>
                </mxCell>
                <mxCell id="105" value="" style="edgeStyle=none;html=1;fillColor=#d5e8d4;gradientColor=#97d077;strokeColor=#000000;" edge="1" parent="1">
                    <mxGeometry relative="1" as="geometry">
                        <mxPoint x="-640" y="960" as="sourcePoint"/>
                        <mxPoint x="-640" y="1040" as="targetPoint"/>
                    </mxGeometry>
                </mxCell>
                <mxCell id="106" value="DIAGNOSTICO=Sobrepeso crÃ³nico (obesidad de grado II)" style="rounded=0;whiteSpace=wrap;html=1;fillColor=#000000;strokeColor=#6c8ebf;gradientColor=#7ea6e0;" vertex="1" parent="1">
                    <mxGeometry x="-400" y="1040" width="150" height="60" as="geometry"/>
                </mxCell>
                <mxCell id="107" value="35&amp;lt;= IMC &amp;lt;=40" style="rhombus;whiteSpace=wrap;html=1;fillColor=#000000;strokeColor=#d6b656;gradientColor=#ffd966;" vertex="1" parent="1">
                    <mxGeometry x="-690" y="1040" width="90" height="90" as="geometry"/>
                </mxCell>
                <mxCell id="108" value="" style="endArrow=none;html=1;fillColor=#d5e8d4;gradientColor=#97d077;strokeColor=#000000;" edge="1" parent="1">
                    <mxGeometry width="50" height="50" relative="1" as="geometry">
                        <mxPoint x="-600" y="1084.52" as="sourcePoint"/>
                        <mxPoint x="-490" y="1085.02" as="targetPoint"/>
                        <Array as="points">
                            <mxPoint x="-540" y="1085.02"/>
                        </Array>
                    </mxGeometry>
                </mxCell>
                <mxCell id="109" value="" style="edgeStyle=none;html=1;fillColor=#d5e8d4;gradientColor=#97d077;strokeColor=#000000;" edge="1" parent="1">
                    <mxGeometry relative="1" as="geometry">
                        <mxPoint x="-490" y="1080" as="sourcePoint"/>
                        <mxPoint x="-490" y="1160" as="targetPoint"/>
                    </mxGeometry>
                </mxCell>
                <mxCell id="110" value="" style="endArrow=none;html=1;fillColor=#d5e8d4;gradientColor=#97d077;strokeColor=#000000;" edge="1" parent="1">
                    <mxGeometry width="50" height="50" relative="1" as="geometry">
                        <mxPoint x="-800" y="1084.52" as="sourcePoint"/>
                        <mxPoint x="-690" y="1085.02" as="targetPoint"/>
                        <Array as="points">
                            <mxPoint x="-740" y="1085.02"/>
                        </Array>
                    </mxGeometry>
                </mxCell>
                <mxCell id="111" value="" style="edgeStyle=none;html=1;fillColor=#d5e8d4;gradientColor=#97d077;strokeColor=#000000;" edge="1" parent="1">
                    <mxGeometry relative="1" as="geometry">
                        <mxPoint x="-800" y="1080" as="sourcePoint"/>
                        <mxPoint x="-800" y="1160" as="targetPoint"/>
                    </mxGeometry>
                </mxCell>
                <mxCell id="112" value="DIAGNOSTICO=&lt;span style=&quot;background-color: initial;&quot;&gt;Obesidad premÃ³rbida (obesidad de grado&amp;nbsp;&lt;/span&gt;&lt;span style=&quot;background-color: initial;&quot;&gt;III)&lt;/span&gt;&lt;span style=&quot;background-color: initial;&quot;&gt;&lt;br&gt;&lt;/span&gt;" style="rounded=0;whiteSpace=wrap;html=1;fillColor=#000000;strokeColor=#6c8ebf;gradientColor=#7ea6e0;" vertex="1" parent="1">
                    <mxGeometry x="-570" y="1160" width="170" height="60" as="geometry"/>
                </mxCell>
                <mxCell id="113" value="DIAGNOSTICO=&lt;span style=&quot;background-color: initial;&quot;&gt;Obesidad mÃ³rbida (obesidad de grado&amp;nbsp;&lt;/span&gt;&lt;span style=&quot;background-color: initial;&quot;&gt;IV)&lt;/span&gt;&lt;span style=&quot;background-color: initial;&quot;&gt;&lt;br&gt;&lt;/span&gt;" style="rounded=0;whiteSpace=wrap;html=1;fillColor=#000000;strokeColor=#6c8ebf;gradientColor=#7ea6e0;" vertex="1" parent="1">
                    <mxGeometry x="-870" y="1160" width="160" height="60" as="geometry"/>
                </mxCell>
                <mxCell id="114" value="" style="endArrow=none;html=1;fillColor=#d5e8d4;gradientColor=#97d077;strokeColor=#000000;" edge="1" parent="1">
                    <mxGeometry width="50" height="50" relative="1" as="geometry">
                        <mxPoint x="490" y="1360" as="sourcePoint"/>
                        <mxPoint x="490" y="480" as="targetPoint"/>
                    </mxGeometry>
                </mxCell>
                <mxCell id="115" value="" style="endArrow=none;html=1;fillColor=#d5e8d4;gradientColor=#97d077;strokeColor=#000000;" edge="1" parent="1">
                    <mxGeometry width="50" height="50" relative="1" as="geometry">
                        <mxPoint x="270" y="1360" as="sourcePoint"/>
                        <mxPoint x="270" y="620" as="targetPoint"/>
                    </mxGeometry>
                </mxCell>
                <mxCell id="116" value="" style="endArrow=none;html=1;fillColor=#d5e8d4;gradientColor=#97d077;strokeColor=#000000;" edge="1" parent="1">
                    <mxGeometry width="50" height="50" relative="1" as="geometry">
                        <mxPoint x="120" y="1360" as="sourcePoint"/>
                        <mxPoint x="119.99999999999955" y="740" as="targetPoint"/>
                    </mxGeometry>
                </mxCell>
                <mxCell id="117" value="" style="endArrow=none;html=1;fillColor=#d5e8d4;gradientColor=#97d077;strokeColor=#000000;" edge="1" parent="1">
                    <mxGeometry width="50" height="50" relative="1" as="geometry">
                        <mxPoint x="-180" y="1360" as="sourcePoint"/>
                        <mxPoint x="-180.00000000000045" y="980" as="targetPoint"/>
                    </mxGeometry>
                </mxCell>
                <mxCell id="118" value="" style="endArrow=none;html=1;fillColor=#d5e8d4;gradientColor=#97d077;strokeColor=#000000;" edge="1" parent="1">
                    <mxGeometry width="50" height="50" relative="1" as="geometry">
                        <mxPoint x="-30" y="1360" as="sourcePoint"/>
                        <mxPoint x="-30.000000000000455" y="860" as="targetPoint"/>
                    </mxGeometry>
                </mxCell>
                <mxCell id="119" value="" style="endArrow=none;html=1;fillColor=#d5e8d4;gradientColor=#97d077;strokeColor=#000000;" edge="1" parent="1">
                    <mxGeometry width="50" height="50" relative="1" as="geometry">
                        <mxPoint x="-490" y="1360" as="sourcePoint"/>
                        <mxPoint x="-490.00000000000045" y="1220" as="targetPoint"/>
                    </mxGeometry>
                </mxCell>
                <mxCell id="120" value="" style="endArrow=none;html=1;fillColor=#d5e8d4;gradientColor=#97d077;strokeColor=#000000;" edge="1" parent="1">
                    <mxGeometry width="50" height="50" relative="1" as="geometry">
                        <mxPoint x="-327" y="1360" as="sourcePoint"/>
                        <mxPoint x="-326.6700000000004" y="1100" as="targetPoint"/>
                    </mxGeometry>
                </mxCell>
                <mxCell id="121" value="" style="endArrow=none;html=1;fillColor=#d5e8d4;gradientColor=#97d077;strokeColor=#000000;" edge="1" parent="1">
                    <mxGeometry width="50" height="50" relative="1" as="geometry">
                        <mxPoint x="-800" y="1360" as="sourcePoint"/>
                        <mxPoint x="-800.0000000000005" y="1220" as="targetPoint"/>
                    </mxGeometry>
                </mxCell>
                <mxCell id="122" value="" style="endArrow=none;html=1;fillColor=#d5e8d4;gradientColor=#97d077;strokeColor=#000000;" edge="1" parent="1">
                    <mxGeometry width="50" height="50" relative="1" as="geometry">
                        <mxPoint x="-800" y="1360" as="sourcePoint"/>
                        <mxPoint x="490" y="1360" as="targetPoint"/>
                    </mxGeometry>
                </mxCell>
                <mxCell id="123" value="" style="endArrow=classic;html=1;fillColor=#d5e8d4;gradientColor=#97d077;strokeColor=#000000;" edge="1" parent="1">
                    <mxGeometry width="50" height="50" relative="1" as="geometry">
                        <mxPoint x="-60" y="1360" as="sourcePoint"/>
                        <mxPoint x="-60" y="1480" as="targetPoint"/>
                    </mxGeometry>
                </mxCell>
                <mxCell id="124" value="" style="edgeStyle=none;html=1;fillColor=#d5e8d4;gradientColor=#97d077;strokeColor=#000000;" edge="1" parent="1" source="125" target="126">
                    <mxGeometry relative="1" as="geometry"/>
                </mxCell>
                <mxCell id="125" value="DIAGNOSTICO" style="shape=document;whiteSpace=wrap;html=1;boundedLbl=1;size=0.5;fillColor=#000000;strokeColor=#82b366;gradientColor=#97d077;" vertex="1" parent="1">
                    <mxGeometry x="-130" y="1480" width="140" height="80" as="geometry"/>
                </mxCell>
                <mxCell id="126" value="FIN" style="rounded=0;whiteSpace=wrap;html=1;fillColor=#000000;strokeColor=#996185;gradientColor=#d5739d;" vertex="1" parent="1">
                    <mxGeometry x="-120" y="1610" width="120" height="60" as="geometry"/>
                </mxCell>
                <mxCell id="127" value="SI" style="text;html=1;strokeColor=#666666;fillColor=#000000;align=center;verticalAlign=middle;whiteSpace=wrap;rounded=0;gradientColor=#b3b3b3;" vertex="1" parent="1">
                    <mxGeometry x="390" y="310" width="60" height="30" as="geometry"/>
                </mxCell>
                <mxCell id="128" value="NO" style="text;html=1;strokeColor=#666666;fillColor=#000000;align=center;verticalAlign=middle;whiteSpace=wrap;rounded=0;gradientColor=#b3b3b3;" vertex="1" parent="1">
                    <mxGeometry x="150" y="310" width="60" height="30" as="geometry"/>
                </mxCell>
                <mxCell id="129" value="SI" style="text;html=1;strokeColor=#666666;fillColor=#000000;align=center;verticalAlign=middle;whiteSpace=wrap;rounded=0;gradientColor=#b3b3b3;" vertex="1" parent="1">
                    <mxGeometry x="170" y="440" width="60" height="30" as="geometry"/>
                </mxCell>
                <mxCell id="130" value="SI" style="text;html=1;strokeColor=#666666;fillColor=#000000;align=center;verticalAlign=middle;whiteSpace=wrap;rounded=0;gradientColor=#b3b3b3;" vertex="1" parent="1">
                    <mxGeometry x="30" y="560" width="60" height="30" as="geometry"/>
                </mxCell>
                <mxCell id="131" value="SI" style="text;html=1;strokeColor=#666666;fillColor=#000000;align=center;verticalAlign=middle;whiteSpace=wrap;rounded=0;gradientColor=#b3b3b3;" vertex="1" parent="1">
                    <mxGeometry x="-120" y="680" width="60" height="30" as="geometry"/>
                </mxCell>
                <mxCell id="132" value="SI" style="text;html=1;strokeColor=#666666;fillColor=#000000;align=center;verticalAlign=middle;whiteSpace=wrap;rounded=0;gradientColor=#b3b3b3;" vertex="1" parent="1">
                    <mxGeometry x="-280" y="800" width="60" height="30" as="geometry"/>
                </mxCell>
                <mxCell id="133" value="SI" style="text;html=1;strokeColor=#666666;fillColor=#1A1A1A;align=center;verticalAlign=middle;whiteSpace=wrap;rounded=0;gradientColor=#b3b3b3;" vertex="1" parent="1">
                    <mxGeometry x="-425" y="920" width="60" height="30" as="geometry"/>
                </mxCell>
                <mxCell id="134" value="SI" style="text;html=1;strokeColor=#666666;fillColor=#000000;align=center;verticalAlign=middle;whiteSpace=wrap;rounded=0;gradientColor=#b3b3b3;" vertex="1" parent="1">
                    <mxGeometry x="-580" y="1050" width="60" height="30" as="geometry"/>
                </mxCell>
                <mxCell id="135" value="NO" style="text;html=1;strokeColor=#666666;fillColor=#000000;align=center;verticalAlign=middle;whiteSpace=wrap;rounded=0;gradientColor=#b3b3b3;" vertex="1" parent="1">
                    <mxGeometry x="-20" y="440" width="60" height="30" as="geometry"/>
                </mxCell>
                <mxCell id="136" value="NO" style="text;html=1;strokeColor=#666666;fillColor=#000000;align=center;verticalAlign=middle;whiteSpace=wrap;rounded=0;gradientColor=#b3b3b3;" vertex="1" parent="1">
                    <mxGeometry x="-160" y="560" width="60" height="30" as="geometry"/>
                </mxCell>
                <mxCell id="137" value="NO" style="text;html=1;strokeColor=#666666;fillColor=#000000;align=center;verticalAlign=middle;whiteSpace=wrap;rounded=0;gradientColor=#b3b3b3;" vertex="1" parent="1">
                    <mxGeometry x="-320" y="680" width="60" height="30" as="geometry"/>
                </mxCell>
                <mxCell id="138" value="NO" style="text;html=1;strokeColor=#666666;fillColor=#000000;align=center;verticalAlign=middle;whiteSpace=wrap;rounded=0;gradientColor=#b3b3b3;" vertex="1" parent="1">
                    <mxGeometry x="-460" y="800" width="60" height="30" as="geometry"/>
                </mxCell>
                <mxCell id="139" value="NO" style="text;html=1;strokeColor=#666666;fillColor=#000000;align=center;verticalAlign=middle;whiteSpace=wrap;rounded=0;gradientColor=#b3b3b3;" vertex="1" parent="1">
                    <mxGeometry x="-620" y="920" width="60" height="30" as="geometry"/>
                </mxCell>
                <mxCell id="140" value="NO" style="text;html=1;strokeColor=#666666;fillColor=#000000;align=center;verticalAlign=middle;whiteSpace=wrap;rounded=0;gradientColor=#b3b3b3;" vertex="1" parent="1">
                    <mxGeometry x="-770" y="1050" width="60" height="30" as="geometry"/>
                </mxCell>
                <mxCell id="141" value="" style="edgeStyle=none;html=1;fillColor=#d5e8d4;gradientColor=#97d077;strokeColor=#000000;" edge="1" parent="1" source="142" target="143">
                    <mxGeometry relative="1" as="geometry"/>
                </mxCell>
                <mxCell id="142" value="p=peso&lt;br&gt;a=altura" style="shape=parallelogram;perimeter=parallelogramPerimeter;whiteSpace=wrap;html=1;fixedSize=1;fillColor=#000000;strokeColor=#6c8ebf;gradientColor=#7ea6e0;" vertex="1" parent="1">
                    <mxGeometry x="240" y="60" width="120" height="60" as="geometry"/>
                </mxCell>
                <mxCell id="143" value="&lt;span style=&quot;color: rgb(255, 255, 255);&quot;&gt;IMC=peso[kg] / altura**2 [m])&lt;/span&gt;" style="rounded=0;whiteSpace=wrap;html=1;fillColor=#000000;strokeColor=#996185;gradientColor=#d5739d;" vertex="1" parent="1">
                    <mxGeometry x="240" y="190" width="120" height="60" as="geometry"/>
                </mxCell>
            </root>
        </mxGraphModel>
    </diagram>
</mxfile>